<svg preserveAspectRatio="none" width="100%" height="100%" overflow="visible" style="display: block;" viewBox="0 0 40 40" fill="none" xmlns="http://www.w3.org/2000/svg">
<g id="Group Gas Meter">
<path id="Dial Body" d="M6 15C6 12.7909 7.79086 11 10 11H22C24.2091 11 26 12.7909 26 15V27C26 29.2091 24.2091 31 22 31H10C7.79086 31 6 29.2091 6 27V15Z" stroke="var(--stroke-0, #3A4246)" stroke-width="2" stroke-linecap="round" stroke-linejoin="round"/>
<circle id="Dial Face" cx="16" cy="21" r="6.5" stroke="var(--stroke-0, #3A4246)" stroke-width="2"/>
<path id="Needle" d="M16 21L19 17.5" stroke="var(--stroke-0, #3A4246)" stroke-width="2" stroke-linecap="round"/>
<path id="Tick Top" d="M16 16V14.5" stroke="var(--stroke-0, #3A4246)" stroke-width="1.5" stroke-linecap="round"/>
<path id="Pipe" d="M13 11V8M19 11V8" stroke="var(--stroke-0, #3A4246)" stroke-width="2" stroke-linecap="round"/>
<circle id="Ellipse Accent" cx="28.5" cy="12" r="8" fill="var(--fill-0, #F6F6F3)" stroke="var(--stroke-0, #B8A676)" stroke-width="2"/>
<path id="Flame" d="M28.5 8.5C28.5 8.5 26.3 10.6 26.3 12.6C26.3 14.15 27.35 15.3 28.7 15.3C30.05 15.3 31.05 14.2 31.05 12.85C31.05 12.15 30.75 11.55 30.35 11.05C30.35 11.7 29.95 12.15 29.5 12.15C29.05 12.15 28.75 11.75 28.85 11.15C28.95 10.55 28.9 9.5 28.5 8.5Z" fill="var(--fill-0, #B8A676)"/>
</g>
</svg>
