<svg preserveAspectRatio="none" width="100%" height="100%" overflow="visible" style="display: block;" viewBox="0 0 24 24" fill="none" xmlns="http://www.w3.org/2000/svg">
<g id="Bell">
<path id="Vector" d="M18 8.5C18 6.9087 17.3679 5.38258 16.2426 4.25736C15.1174 3.13214 13.5913 2.5 12 2.5C10.4087 2.5 8.88258 3.13214 7.75736 4.25736C6.63214 5.38258 6 6.9087 6 8.5C6 15.5 3 17.5 3 17.5H21C21 17.5 18 15.5 18 8.5Z" stroke="var(--stroke-0, #3A4246)" stroke-width="2" stroke-linecap="round" stroke-linejoin="round"/>
<path id="Clapper" d="M13.7302 21C13.5537 21.3031 13.3009 21.5547 12.9974 21.7295C12.6939 21.9044 12.3499 21.9965 12 21.9965C11.6501 21.9965 11.3061 21.9044 11.0026 21.7295C10.6991 21.5547 10.4463 21.3031 10.2698 21" stroke="var(--stroke-0, #3A4246)" stroke-width="2" stroke-linecap="round" stroke-linejoin="round"/>
</g>
</svg>
